<?xml version="1.0" encoding="utf-8"?>
<!-- Generator: Adobe Illustrator 24.0.2, SVG Export Plug-In . SVG Version: 6.00 Build 0)  -->
<svg version="1.1" id="Camada_1" xmlns="http://www.w3.org/2000/svg" xmlns:xlink="http://www.w3.org/1999/xlink" x="0px" y="0px"
	 viewBox="0 0 1080 1080" style="enable-background:new 0 0 1080 1080;" xml:space="preserve">
<style type="text/css">
	.st0{display:none;}
	.st1{display:inline;fill:#999999;}
	.st2{fill:#999999;}
</style>
<g class="st0">
	<path class="st1" d="M9.38,515.49c38-39.86,74.66-81.09,114.21-119.34c240.93-233,597.25-231.75,837.48,2.85
		c38.38,37.48,74.2,77.59,111.2,116.48c11.71,11.6,8.78,40.88,0,49.82c-37.99,39.85-74.71,81.01-114.18,119.34
		c-237.22,230.38-593.23,231.62-831.49,2.8C85.93,648.4,48.37,606.11,9.38,565.31C2.06,556.37-0.87,525.63,9.38,515.49z
		 M762.89,542.13c1.57-118.78-101.62-223.07-221.43-223.77c-119.42-0.71-222.87,102.48-222.7,222.11
		c0.17,117.99,99.99,219.11,219.12,221.97C655.77,765.26,761.3,661.94,762.89,542.13z"/>
	<path class="st1" d="M541.69,417.15c60.64-1.33,121.04,57.09,122.47,118.47c1.55,66.62-54.05,124.88-122.05,127.87
		c-61.98,2.73-124.61-57.87-124.55-120.51C417.62,475.78,474,418.64,541.69,417.15z"/>
</g>
<g>
	<path class="st2" d="M36.33,511.08c85.84-115.72,193.23-205.75,324.89-264.38c125.21-55.76,251.72-52.63,375.71,5.25
		c27.53,12.85,45.27,9.49,65.6-12.11c41.6-44.21,85.38-86.38,128.45-129.2c16.93-16.83,35.27-39.11,59.43-13.77
		c24.06,25.23,0.22,42.81-16.21,59.46c-38.95,39.47-77.34,79.58-117.93,117.3c-21.88,20.33-23.88,32.62,2.82,50.53
		c58.38,39.14,108.2,88.52,155.85,139.91c49.5,53.38,49.41,104-0.04,157.48c-74.88,80.99-157.54,152.19-256.77,202.34
		c-134.49,67.97-270.97,73.41-408.11,9.77c-27.57-12.79-45.2-9.69-65.6,11.88c-43.53,46.02-89.3,89.93-134.06,134.79
		c-16.07,16.1-33.76,29.67-54.1,8.74c-20.44-21.04-5.51-38.24,10.34-54.04c37.4-37.29,74.69-74.68,112-112.05
		c38.65-38.72,38.35-38.35-3.58-70.52C147.82,700.84,84.72,645,36.33,574.45C25.48,556.37,16.7,537.34,36.33,511.08z M541.13,717.04
		c132.09,1.06,216.23-128.1,160.74-249.16c-10.57-23.06-10.78-36.54,9.51-53.63c28.17-23.71,53.89-50.6,78.69-77.92
		c10.11-11.14,37.99-19.95,15.1-42.88c-20.98-21.02-38.56-12.5-56.68,6.93c-26.06,27.96-54.9,53.3-81.49,80.79
		c-13.13,13.57-24.22,14.29-41.63,6.42c-78.55-35.53-153.56-23.14-207.9,32.01c-52.75,53.55-64.56,128.74-29.32,205.02
		c8.97,19.42,6.16,31.34-8.03,45c-28.48,27.42-56.88,55.02-83.53,84.17c-9.25,10.11-35.92,18.46-13.09,39.64
		c18.5,17.16,36.06,17.22,54.17-3.26c20.06-22.69,45.31-41.16,63.39-65.16c23.77-31.56,47.4-39.99,82.12-17.53
		C499.82,718.25,521.21,717.2,541.13,717.04z"/>
	<path class="st2" d="M423.9,543.05c-0.61-78.51,70.11-135.36,146.54-118.22c31.39,7.04,35.42,17.93,13.35,40.6
		c-36.73,37.74-74.08,74.89-111.78,111.68c-8.84,8.62-16.16,25.21-31.23,19.29c-15.06-5.92-14.83-23.36-16.78-37.58
		C423.31,553.65,423.9,548.31,423.9,543.05z"/>
	<path class="st2" d="M663.28,541.35c0.58,76.99-65.93,133.44-141.65,120.19c-10.43-1.82-22.4-3.2-27.29-13.29
		c-6.75-13.94,6.45-21.29,14.24-29.24c33.11-33.77,66.19-67.61,100.47-100.17c11.4-10.83,20.37-33.87,40.04-24.18
		C665.54,502.78,662.42,524.39,663.28,541.35z"/>
</g>
</svg>
